<svg xmlns="http://www.w3.org/2000/svg" viewBox="0 0 200 200">
  <defs>
    <linearGradient id="goldGrad" x1="0%" y1="0%" x2="100%" y2="100%">
      <stop offset="0%" stop-color="#F3D99B"/>
      <stop offset="50%" stop-color="#D4AF37"/>
      <stop offset="100%" stop-color="#C7A66A"/>
    </linearGradient>
    <radialGradient id="coreGlow" cx="50%" cy="50%" r="50%">
      <stop offset="0%" stop-color="#FFF7D7"/>
      <stop offset="60%" stop-color="#D4AF37"/>
      <stop offset="100%" stop-color="#C7A66A" stop-opacity="0"/>
    </radialGradient>
    <filter id="glow">
      <feGaussianBlur stdDeviation="2" result="blur"/>
      <feMerge><feMergeNode in="blur"/><feMergeNode in="SourceGraphic"/></feMerge>
    </filter>
  </defs>
  
  <!-- Outer ring -->
  <circle cx="100" cy="100" r="88" fill="none" stroke="url(#goldGrad)" stroke-width="1.5" opacity="0.7"/>
  
  <!-- Tick marks on outer ring -->
  <g stroke="#D4AF37" stroke-width="0.8" opacity="0.5">
    <line x1="100" y1="12" x2="100" y2="20"/>
    <line x1="100" y1="180" x2="100" y2="188"/>
    <line x1="12" y1="100" x2="20" y2="100"/>
    <line x1="180" y1="100" x2="188" y2="100"/>
  </g>
  <g stroke="#D4AF37" stroke-width="0.4" opacity="0.3">
    <line x1="145" y1="18" x2="141" y2="25"/><line x1="55" y1="18" x2="59" y2="25"/>
    <line x1="182" y1="55" x2="175" y2="59"/><line x1="182" y1="145" x2="175" y2="141"/>
    <line x1="55" y1="182" x2="59" y2="175"/><line x1="145" y1="182" x2="141" y2="175"/>
    <line x1="18" y1="55" x2="25" y2="59"/><line x1="18" y1="145" x2="25" y2="141"/>
  </g>
  
  <!-- Middle ring -->
  <circle cx="100" cy="100" r="62" fill="none" stroke="#D4AF37" stroke-width="1" opacity="0.45"/>
  
  <!-- Inner ring -->
  <circle cx="100" cy="100" r="36" fill="none" stroke="#C0C6D4" stroke-width="0.8" opacity="0.25"/>
  
  <!-- Compass needle (vertical) -->
  <line x1="100" y1="16" x2="100" y2="184" stroke="#D4AF37" stroke-width="1" opacity="0.6"/>
  <!-- Arrow head top -->
  <polygon points="100,10 96,22 104,22" fill="#D4AF37" opacity="0.8"/>
  <!-- Arrow diamond bottom -->
  <polygon points="100,190 96,180 104,180" fill="#D4AF37" opacity="0.5"/>
  
  <!-- Horizontal crosshair -->
  <line x1="16" y1="100" x2="184" y2="100" stroke="#D4AF37" stroke-width="0.5" opacity="0.25"/>
  
  <!-- Compass points -->
  <text x="100" y="9" text-anchor="middle" font-family="serif" font-size="8" fill="#D4AF37" font-weight="bold" opacity="0.8">N</text>
  <text x="100" y="198" text-anchor="middle" font-family="serif" font-size="8" fill="#D4AF37" font-weight="bold" opacity="0.6">S</text>
  <text x="195" y="103" text-anchor="middle" font-family="serif" font-size="8" fill="#D4AF37" font-weight="bold" opacity="0.6">E</text>
  <text x="5" y="103" text-anchor="middle" font-family="serif" font-size="8" fill="#D4AF37" font-weight="bold" opacity="0.6">W</text>
  
  <!-- Crescent moon (the C) -->
  <path d="M118 52 C88 62 68 88 68 118 c0 34 24 58 52 58 -8 4 -18 2 -28 0 C62 170 40 146 40 118 40 78 72 48 118 52 Z" 
        fill="url(#goldGrad)" filter="url(#glow)"/>
  
  <!-- Moon icon (small, on the ring) -->
  <circle cx="140" cy="116" r="8" fill="#C0C6D4" opacity="0.7"/>
  <circle cx="144" cy="113" r="6.5" fill="#0B0B12"/>
  
  <!-- Sun/star burst center -->
  <circle cx="100" cy="100" r="8" fill="url(#coreGlow)" filter="url(#glow)"/>
  
  <!-- Gold spheres at cardinal points on middle ring -->
  <circle cx="100" cy="38" r="4" fill="#D4AF37" filter="url(#glow)"/>
  <circle cx="162" cy="100" r="4" fill="#D4AF37" filter="url(#glow)"/>
  <circle cx="100" cy="162" r="3.5" fill="#D4AF37" opacity="0.7"/>
  <circle cx="38" cy="100" r="3.5" fill="#D4AF37" opacity="0.7"/>
  
  <!-- Small accent stars -->
  <text x="130" y="42" font-size="6" fill="#F3D99B" opacity="0.7">✦</text>
  <text x="148" y="68" font-size="4" fill="#F3D99B" opacity="0.5">✦</text>
  <text x="52" y="58" font-size="5" fill="#F3D99B" opacity="0.4">✦</text>
  <text x="158" y="142" font-size="3" fill="#F3D99B" opacity="0.3">✦</text>
</svg>
